<?xml version="1.0" encoding="UTF-8"?>
<svg id="Layer_1" data-name="Layer 1" xmlns="http://www.w3.org/2000/svg" viewBox="0 0 1024 301.69">
  <defs>
    <style>
      .cls-1 {
        fill: #130606;
      }

      .cls-2 {
        fill: #fdfdfd;
      }

      .cls-3 {
        fill: #a30f25;
      }
    </style>
  </defs>
  <polygon class="cls-1" points="638.46 60.08 599 178.73 568.21 178.73 562.22 160.47 541.98 100.51 515.68 178.69 485.28 178.71 444.88 59.81 475.08 59.87 501.84 140.66 528.89 59.97 556.08 59.82 583.12 141.23 610.13 59.88 638.46 60.08"/>
  <path class="cls-3" d="M159.89,122.56c-6.38,12.93-21.68,20.93-36.35,22.55l-35.55.58-.19,33.04-29.68-.05.14-118.95,63.8.34c6.43.03,12.08,2.78,18.37,4.23,7.94,4.28,15.61,9.8,19.79,18.18,6.24,12.53,5.84,27.61-.32,40.09ZM117.38,121.46c11.6-.15,18.3-10.17,17.71-20.25-.62-10.6-8.62-17.78-19.82-17.94l-27.9-.4.49,38.95,29.52-.37Z"/>
  <path class="cls-3" d="M384.99,172.31c-22.19,14.33-64.38,9.97-86.28-6.63l10.83-22.03c18.59,15.02,60.71,19.27,62.23,2.32,1.32-14.74-29.82-12.36-53.06-23.93-11.76-5.86-18.12-17.03-16.68-30.56,2.61-24.55,25.95-33.68,49.95-34.07,15.69-.26,31.02,2.56,44.24,11.16l-9.62,22.13c-14.99-9.99-45.1-14.78-54.25-2.61-3.59,4.78-.41,11.15,4.71,13.59,16.79,7.98,60.74,6.72,63.9,36.93,1.44,13.78-3.99,25.97-15.99,33.72Z"/>
  <path class="cls-3" d="M292.02,158.07c-16.82,22.99-50.97,27.75-76.66,18.28-18.12-6.68-32.31-20.94-37.42-39.34-6.94-24.98-.03-48.99,20.03-65.4,25.65-20.98,72.42-19.74,93.83,7.84l-18.97,17.53c-13.41-16.56-38.12-19.98-55.11-6.31s-17.32,39.64-2.23,54.39c16.48,16.11,42.75,13.37,57.41-4.13l19.12,17.13Z"/>
  <path class="cls-1" d="M937.02,123.19l16.93-14.84.51-34.41c2.19-2.07,5.02-4.47,4.35-7.64-.77-3.7-3.07-6.3-6.43-6.71-4.05-.49-6.51,2.08-7.93,4.96-1.98,4,2,6.68,3.3,9.47l.72,31.86-13.76,11.94c-7.55-10.7-21.46-13.69-32.42-6.89-4.36,2.71-7.43,6.31-8.78,11.62l-28.37.11c3.68-23.11,23.79-38.74,46.84-37.84,9.47.37,17.76,2.78,25.02,9.28l.21-41.53,28.3-.05-.03,126.26-26.5-.06-.25-10.2c-15.75,17.57-48.59,15.58-63.66-4.08l20.81-16.25c6.83,8.85,17.82,11.08,27.96,7.16,8.88-3.43,14.86-13.11,14.31-23.72l-1.16-8.45Z"/>
  <path class="cls-1" d="M709.26,175.44c-15.99,7.04-33.99,6.62-49.11-.75-16.14-7.87-25.54-23.21-26.02-40.94-.54-20.04,10.72-37.23,29.28-44.76,13.9-5.63,29.48-5.74,43.53-.29,18.82,7.3,30.34,24.79,29.68,45.03-.59,18.04-10.25,34.17-27.36,41.7ZM708.87,131.23c-.51-14.57-11.74-24.42-25.39-23.47-13.25.92-22.27,12.25-21.53,25.96.74,13.81,11.2,23.84,24.57,23.38s22.85-11.5,22.34-25.87Z"/>
  <path class="cls-1" d="M833.73,73.4l.25,56.3c.03,7.39,5.42,13.41,13.03,13.44l45.41.23-20.3,16.57-4.52-8.18-17.17-.13v27.19s-27.98-.12-27.98-.12l-.04-126.12,28.05.05-.21,75.67,52.83.02c2.8-5.98,8.38-8.89,13.8-7.86,6.1,1.16,10.26,6.17,10.39,11.79.13,6-3.71,11.37-9.44,12.69-5.75,1.33-11.74-.83-14.32-7.15l-56.51-.23c-3.72-.02-7.7-3.04-7.65-7.1l.67-56.77c1.98-2.92,6.34-6.86,2.42-11.21-2.67-2.96-7.43-4.49-10.99-.88-2.9,2.94-3.57,9.03,2.28,11.8ZM912.94,128.05c-3.43,1.33-4,4.72-2.49,7.57.89,1.69,3.8,3.08,6.45,1.75,1.78-.9,3.46-3.89,2.51-6.56-.72-2.05-3.36-3.96-6.47-2.75Z"/>
  <path class="cls-1" d="M778.89,178.59l-27.71.1.08-92.62h25.84s.31,12.14.31,12.14c8.21-10.02,20.22-14.38,32.68-12.96v25.27c-7.86-1.03-15.1-.23-21.62,3.66-6.01,4.23-9.26,11.12-9.3,18.68l-.26,45.74Z"/>
  <path class="cls-1" d="M428.9,238.46l-.31,12.69-10.52-.06.07-44.25,23.64.21c8.95.08,14.89,7.09,15.08,15.15s-5.27,14.86-14.19,16.05l-13.78.21ZM440.28,229.57c4.39-.69,5.96-3.95,5.84-7.35-.11-2.9-1.67-5.85-5.26-6.45-3.96-.66-7.78-.56-12.09-.22v14.12c3.95.32,7.52.52,11.51-.1Z"/>
  <path class="cls-1" d="M725.09,249.5c-9.66,4.39-21.35,2.63-30.02-2.61.86-3.46,2.09-5.83,3.62-8.42,9.44,6.81,22.92,6.64,23.11.62.05-1.61-1.28-3.44-3.34-3.99l-13.28-3.58c-5.03-1.36-8.77-5.08-9.2-9.46-.5-5.08.98-10.16,5.65-12.78,8.75-4.92,19.46-4.21,28.41.49-.52,3.16-1.69,5.38-3.15,8.32-9.01-5.54-20.4-4.55-20.43,1.09-.01,1.87,1.25,3.29,3.3,3.86l13.22,3.69c5.09,1.42,8.65,5.14,9.16,9.59.59,5.2-1.41,10.61-7.06,13.17Z"/>
  <path class="cls-1" d="M592.78,251.03l-9.92-.15-.49-20.47c-.1-4.09-4.02-5.81-7.82-5.19-2.75.45-6.21,2.84-6.27,6.66l-.28,19.24h-10.11s.03-47.19.03-47.19h10.1s.08,16.26.08,16.26c4.45-3.63,9.36-4.72,14.74-3.4,5.69,1.4,9.78,6.02,9.82,12.03l.13,22.22Z"/>
  <path class="cls-1" d="M940.55,230.87l-.47,20.26h-10.28s0-34.17,0-34.17l8.97-.03c.55.13,1.26,1.7,1.64,2.75,5.42-4.24,13.2-4.76,19.17-.55,2.82,1.99,4.7,5.53,4.74,8.98l.24,23.14-10.1-.04-.02-18.54c0-4.16-2.21-7.16-5.92-7.56-3.28-.35-7.86,1.33-7.97,5.77Z"/>
  <path class="cls-1" d="M903.5,251.68c-10.85-.64-18.04-8.66-17.59-18.45s8.6-17.12,19.12-17.02c10.6.11,18.59,7.97,18.51,18.07s-8.6,18.07-20.04,17.39ZM913.35,233.22c-.4-6.09-4.63-8.96-9.7-8.4-4.24.46-7.35,4.06-7.5,8.94-.16,5.44,3.48,9.72,8.48,9.72s9.11-4.23,8.71-10.25Z"/>
  <path class="cls-1" d="M754.47,251.72c-11.04-.2-18.72-8.4-18.39-18.47.32-9.75,8.71-17.19,18.87-17.01s18.38,7.3,18.61,17.18c.24,10.43-7.53,18.52-19.1,18.31ZM763.09,233.26c-.47-5.84-4.52-9.21-9.44-8.51-4.16.59-7.38,4.24-7.49,9.02-.13,5.25,3.72,9.46,8.48,9.62,5.11.18,8.91-4.26,8.45-10.13Z"/>
  <path class="cls-1" d="M488.8,240.25l5.7,5.6c-4.08,5.09-10.19,6.24-16.48,5.78-9.91-.72-17.23-8.04-17.36-17.43s6.93-17.03,16.81-17.88c5.5-.47,11.01,1.3,14.46,4.99,3.89,4.16,5.6,9.92,4.5,15.5l-25.41-.04c1,3.98,3.99,5.95,7.16,6.5,3.74.65,7.01.3,10.62-3.01ZM487.04,230.66c-1.13-5.11-5.03-6.69-8.47-6.67-3.75.03-7.03,2.46-7.68,6.8l16.15-.13Z"/>
  <path class="cls-1" d="M833.1,216.87l.11,33.92-8.76.24c-.55.02-1.43-1.48-1.87-2.68-2.45,2.23-5.08,3.01-8.59,3.29-7.98.66-15.14-4.57-15.23-12.78l-.24-21.75,10.33-.26-.04,18.85c0,4.05,2.21,6.95,5.7,7.38s8-1.75,8.08-5.95l.38-20.23,10.14-.03Z"/>
  <polygon class="cls-1" points="660.65 251.07 649.91 251.11 649.91 215.59 636.02 215.38 636.16 206.76 674.9 206.77 675.03 215.24 660.62 215.51 660.65 251.07"/>
  <path class="cls-1" d="M549.73,242.31c1.99,2.42,2.42,4.54,2.97,7.34-3.08,2.11-6.84,2.22-10.69,1.9-5.83-.49-10.2-4.67-10.3-10.48l-.25-14.65c-.02-1.21-3.85-1.55-4.96-.97l-.17-7.72,5.29-.46.21-8.59,9.95.03.23,8.36,8.45.13.12,8.2-8.67.05.23,15.22c.04,2.86,4.61,3.88,7.6,1.63Z"/>
  <path class="cls-1" d="M860.3,242.85c1.92-.46,4.39,5.52,2.84,6.82-3.54,2.88-9.18,2.37-13.08,1.05-4.11-1.39-6.75-4.87-6.82-9.08l-.24-15.92-5.05-.27c-.41-2.6-.41-4.93.02-7.68l5.03-.37.18-8.73h9.9s.32,8.64.32,8.64l8.36.34v7.76s-8.54.23-8.54.23l.1,13.76c.01,1.61.85,2.94,1.93,3.6s2.5.46,5.06-.15Z"/>
  <path class="cls-1" d="M790.16,250.57c-3.52,1.03-6.69.71-10.42.3l.08-46.94,10.22-.03.12,46.66Z"/>
  <path class="cls-1" d="M524.11,225.68c-5.98-.86-10.92,2.4-10.93,8.04l-.04,17.2-10.26-.07.02-33.96,8.9.06c.56.09,1.34,1.7,1.62,2.84,3-2.3,6.37-3.77,10.73-3.36l-.04,9.25Z"/>
  <path class="cls-1" d="M630.49,250.51c-3.89,1-6.96.66-10.7.3l.07-43.89,10.44-.02.19,43.61Z"/>
  <polygon class="cls-1" points="879.53 251.06 869.34 251.16 869.31 216.87 879.53 217.12 879.53 251.06"/>
  <path class="cls-1" d="M873.6,212.54c-3.53-.38-5.39-2.97-5.44-5.38-.08-3.31,2.32-5.53,5.84-5.7,3.82-.18,6.7,2.18,6.67,5.64-.03,3.21-2.83,5.9-7.07,5.44Z"/>
  <path class="cls-2" d="M117.38,121.46l-29.52.37-.49-38.95,27.9.4c11.2.16,19.2,7.33,19.82,17.94s-6.11,20.1-17.71,20.25Z"/>
  <path class="cls-2" d="M708.87,131.23c.5,14.37-9.05,25.41-22.34,25.87s-23.82-9.57-24.57-23.38c-.74-13.72,8.27-25.04,21.53-25.96,13.65-.95,24.88,8.91,25.39,23.47Z"/>
  <path class="cls-2" d="M912.94,128.05c3.11-1.21,5.74.7,6.47,2.75.94,2.68-.73,5.67-2.51,6.56-2.65,1.33-5.56-.06-6.45-1.75-1.5-2.85-.93-6.23,2.49-7.57Z"/>
  <path class="cls-2" d="M440.28,229.57c-3.99.62-7.57.43-11.52.1v-14.12c4.32-.34,8.14-.44,12.1.22,3.59.6,5.15,3.55,5.26,6.45.13,3.4-1.44,6.66-5.84,7.35Z"/>
  <path class="cls-2" d="M913.35,233.22c.4,6.03-3.61,10.25-8.71,10.25s-8.64-4.28-8.48-9.72c.14-4.88,3.26-8.47,7.5-8.94,5.07-.56,9.3,2.31,9.7,8.4Z"/>
  <path class="cls-2" d="M763.09,233.26c.47,5.87-3.34,10.31-8.45,10.13-4.76-.17-8.61-4.38-8.48-9.62.11-4.77,3.33-8.43,7.49-9.02,4.92-.7,8.97,2.67,9.44,8.51Z"/>
  <path class="cls-2" d="M487.04,230.66l-16.15.13c.65-4.34,3.93-6.77,7.68-6.8,3.44-.03,7.33,1.56,8.47,6.67Z"/>
</svg>