<svg xmlns="http://www.w3.org/2000/svg" viewBox="0 0 320 280" role="img" aria-label="Perth metro mesh map">
  <g fill="#E11932" stroke="#FFFFFF" stroke-width="1.2">
    <polygon points="80,40 140,30 180,60 150,90 100,80"></polygon>
    <polygon points="180,60 240,50 260,90 220,110 150,90"></polygon>
    <polygon points="100,80 150,90 160,130 110,140 70,110"></polygon>
    <polygon points="150,90 220,110 210,150 160,130"></polygon>
    <polygon points="220,110 260,90 280,140 230,170 210,150"></polygon>
    <polygon points="110,140 160,130 170,180 120,200 80,170"></polygon>
    <polygon points="160,130 210,150 200,200 170,180"></polygon>
    <polygon points="210,150 230,170 240,210 200,200"></polygon>
    <polygon points="120,200 170,180 200,200 180,240 130,250"></polygon>
    <polygon points="200,200 240,210 230,250 180,240"></polygon>
    <polygon points="80,170 120,200 90,230 60,210"></polygon>
    <polygon points="60,210 90,230 80,260 40,250"></polygon>
  </g>
  <g fill="#E11932" stroke="#FFFFFF" stroke-width="2">
    <circle cx="80" cy="40" r="4"></circle>
    <circle cx="140" cy="30" r="4"></circle>
    <circle cx="240" cy="50" r="4"></circle>
    <circle cx="260" cy="90" r="4"></circle>
    <circle cx="160" cy="130" r="6"></circle>
    <circle cx="280" cy="140" r="4"></circle>
    <circle cx="170" cy="180" r="4"></circle>
    <circle cx="110" cy="140" r="4"></circle>
    <circle cx="80" cy="170" r="4"></circle>
    <circle cx="60" cy="210" r="4"></circle>
    <circle cx="40" cy="250" r="4"></circle>
    <circle cx="180" cy="240" r="4"></circle>
    <circle cx="240" cy="210" r="4"></circle>
  </g>
  <text x="170" y="125" font-family="Mulish, sans-serif" font-weight="900" font-size="11" fill="#fff" text-anchor="middle">Perth</text>
</svg>